<svg xmlns="http://www.w3.org/2000/svg" viewbox="0 0 654 666" width="564" height="666" fill="none">
  <path fill="#FFC229" d="M556.444 384.277c-9.386-20.945-27.873-36.586-52.057-44.04-7.661-2.361-26.396-8.129-46.147-1.768 3.676-9.591 5.321-20.31 4.672-31.148-.996-16.644-7.294-31.386-17.739-41.512-.181-.177-.362-.349-.543-.521 17.043-.09 34.8-4.883 48.949-13.246 16.118-9.524 30.105-24.988 38.376-42.425 10.169-21.437 11.237-44.632 3.004-65.324-9.239-23.224-29.295-41.23-55.023-49.4065-21.82-6.929-43.839-5.4667-59.352 3.8612-2.574-1.5101-5.267-2.7047-8.018-3.6222 1.945-16.0467-2.112-33.2116-11.656-48.8951-8.805-14.465-21.614-26.8751-36.068-34.9415-17.93-10.0017-38.5-13.3802-61.135-10.04471-16.842 2.4849-30.548 8.07592-37.913 11.08171-31.035 12.6682-45.126 30.2345-56.449 44.3506-9.186 11.4496-15.25 19.0142-30.529 24.7199-11.398 4.2578-21.185 4.9507-31.544 5.6818-17.276 1.2186-38.772 2.7382-55.6904 23.9888-7.022 8.821-12.0848 19.788-14.2538 30.884-2.7698 14.16-.8486 27.736 5.549 39.257 1.9593 3.527 4.2666 6.728 6.8504 9.61-5.1867 2.351-10.259 5.758-14.907 10.675-13.5626 14.351-19.1069 38.172-14.8307 63.724 1.5446 9.222 4.3143 18.23 8.1424 26.574-22.6728 7.206-45.2359 21.972-57.969 47.437-7.94217 15.88-11.40792 34.593-9.763239 52.69C2.34467 413.288 11.5072 432.206 26.1997 445.18c11.856 10.47 27.6449 17.371 44.4635 19.426 15.8891 1.94 31.7828-.512 44.9688-6.901-3.78 4.349-7.537 7.852-11.393 11.45-9.449 8.817-20.1561 18.809-26.2724 37.445-4.3954 13.4-5.5157 28.844-3.2322 44.666 2.0928 14.494 6.9029 28.701 13.9202 41.092 11.6794 20.625 28.4034 34.301 47.0954 38.502 4.252.955 8.6 1.428 13.014 1.428 12.109 0 24.68-3.564 36.922-10.455 4.591 7.727 10.86 14.909 18.663 21.25 18.006 14.642 41.608 22.923 63.609 22.923 5.573 0 11.041-.53 16.29-1.624 13.929-2.901 26.72-9.744 38.023-20.333 7.951-7.455 15.188-16.836 21.528-27.898 3.881 5.491 8.562 10.178 14.011 13.973 10.154 7.077 22.415 10.666 35.844 10.666 8.272 0 16.986-1.362 25.915-4.115 13.439-4.138 26.334-11.167 37.284-20.323 12.228-10.222 21.376-22.632 26.453-35.883 6.078-15.846 9.22-41.164-.186-64.689-.696-1.749-1.52-3.612-2.431-5.553 3.637-.262 7.37-.759 11.184-1.495 46.466-8.975 63.742-56.799 65.558-62.223 2.846-8.497 11.513-34.359-.982-62.237l-.005.005Z"/>
  <path fill="#EC500E" d="M188.394 107.148c-35.43 13.237-58.975.445-75.379 21.06-8.247 10.36-13.1049 27.171-6.178 39.639 8.552 15.392 32.126 18.88 46.957 12.386 16.408-7.182 20.656-25.934 23.478-24.772 3.599 1.476 3.509 32.002-14.831 48.312-22.572 20.075-52.31.329-67.7176 16.625-16.709 17.676-9.9205 70.728 24.4656 88.663 33.623 17.537 74.21-8.631 89.57-34.708 14.025-23.812 9.182-51.232 4.167-79.612-3.933-22.264-10.788-39.782-16.027-51.16 12.194-12.621 30.281-26.861 52.043-26.522 22.11.349 28.412 15.044 51.9 19.822 31.597 6.428 77.572-10.866 84.031-42.114 4.787-23.1573-13.31-48.2691-33.365-59.4607-29.285-16.3334-62.426-2.8098-75.379 2.4754-48.511 19.7979-42.68 52.5364-87.74 69.3663h.005Z"/>
  <path fill="#EC500E" d="M301.366 233.008c-4.657.555-11.798-.406-14.816-4.329-8.285-10.79 22.244-34 15.431-55.069-4.233-13.094-22.177-23.162-35.963-19.258-19.632 5.557-21.305 36.743-21.4 39.328-1.049 28.772 21.281 58.543 43.987 60.775 16.17 1.591 26.558-11.373 30.91-7.149 5.425 5.266-2.531 33.346-22.587 38.134-12.742 3.044-17.5-14.303-35.663-17.877-20.189-3.971-49.793 9.189-54.689 32.174-5.001 23.488 17.991 46.97 39.234 52.437 31.311 8.061 67.679-20.745 79.655-50.052 9.21-22.55.243-36.246 15.455-64.354 7.389-13.653 11.684-14.451 19.021-29.795 5.082-10.632 19.898-41.608 8.323-53.626-10.483-10.886-41.894-5.467-54.689 14.303-5.811 8.979-6.183 24.041-3.566 35.749 2.227 9.958 6.722 16.572 3.085 22.416-3.218 5.176-10.507 6.045-11.728 6.189v.004Z"/>
  <path fill="#EC500E" d="M509.502 154.471c-13.277-33.378-57.573-43.438-75.46-31.754-9.687 6.327-14.378 20.83-18.449 19.435-3.418-1.171.105-11.311-6.145-17.595-5.077-5.108-14.249-5.299-20.651-2.776-10.24 4.042-13.663 15.162-14.454 17.728-6.102 19.827 11.474 29.843 14.044 51.906 3.113 26.737-19.879 33.121-37.742 81.82-8.505 23.191-17.109 46.664-6.145 62.467 15.799 22.755 69.139 25.183 85.137-.88 8.901-14.503 8.062-38.052-3.508-49.268-9.215-8.936-18.569-3.631-26.33-13.198-10.235-12.616-3.656-33.776-.691-43.314 2.527-8.128 7.599-19.75 11.222-19.153 3.29.545 1.225 10.47 6.145 17.595 9.329 13.519 41.503 13.701 63.194.88 21.757-12.86 41.741-43.988 29.843-73.902l-.01.009Zm-69.858 43.147c-6.231.635-11.632-5.032-13.043-6.514-8.162-8.558-4.429-19.535-3.728-21.451.205-.554 5.32-14.016 13.977-14.173 8.028-.148 15.284 11.206 15.841 20.686.525 8.994-4.729 20.606-13.043 21.452h-.004ZM185.638 348.026c-43.562-22.861-65.687-34.292-82.343-34.311-21.7243-.024-54.4415 9.495-68.6143 37.833-10.9026 21.8-10.8978 54.868 9.6535 73.022 16.2657 14.365 42.7236 17.022 60.2858 7.942 16.037-8.291 19.422-23.654 43.277-32.576 6.607-2.47 13.624-4.998 17.552-1.758 10.336 8.52-10.335 48.952-11.407 51.026-21.143 40.772-41.809 40.939-50.027 65.984-10.8695 33.111 8.971 82.393 37.741 88.859 31.268 7.029 73.882-36.356 74.602-73.902.501-26.163-19.579-36.729-28.083-88.859-2.003-12.267-5.473-34.645 2.631-38.712 6.136-3.077 14.588 6.504 28.084 15.837 6.021 4.162 54.484 36.881 87.768 21.116 17.262-8.176 32.15-30.201 28.966-53.669-2.412-17.776-15.274-36.934-32.474-40.47-24.079-4.951-34.906 25.179-66.703 25.513-11.789.124-14.883-3.971-50.904-22.875h-.005Z"/>
  <path fill="#EC500E" d="M303.245 497.588c-10.869-7.292-9.63-19.731-14.921-29.408-10.622-19.42-48.931-30.167-64.948-15.464-12.867 11.808-9.687 38.507.877 54.549 16.327 24.787 54.727 30.884 79.869 21.996 10.793-3.818 16.495-9.457 19.307-7.039 6.074 5.223-7.947 42.286-27.206 44.871-16.275 2.184-22.401-22.106-43.005-23.754-21.729-1.74-49.216 22.521-49.15 46.63.086 30.373 43.887 53.908 74.602 47.509 38.762-8.076 54.222-63.307 57.926-76.54 4.763-17.012 1.101-16.687 6.145-30.793 13.506-37.794 39.959-40.633 45.641-68.621 4.257-20.974-4.977-47.051-19.307-51.027-13.944-3.871-32.708 13.17-41.25 29.914-13.859 27.153-2.522 56.828-13.167 60.704-3.995 1.457-8.596-1.63-11.408-3.517l-.005-.01Z"/>
  <path fill="#EC500E" d="M531.441 395.535c-9.468-21.131-30.653-27.659-35.106-29.035-6.95-2.141-21.428-6.604-34.228 0-7.718 3.981-11.57 10.307-15.799 8.797-4.7-1.677-2.049-10.255-7.022-15.836-9.849-11.058-45.04-5.266-56.171 14.957-1.278 2.323-4.663 8.473-3.509 15.837 1.597 10.188 10.407 13.284 20.184 25.513 3.504 4.382 11.089 13.867 13.167 24.634 2.179 11.292-2.269 21.064-21.943 51.905-23.664 37.102-24.894 34.97-28.084 43.988-7.751 21.905-8.762 57.812 10.531 71.264 23.66 16.496 71.965-4.898 84.255-36.954 4.315-11.249 6.188-29.02-.043-44.608-3.418-8.549-11.684-22.474-13.124-24.892-6.631-11.168-10.759-16.343-10.53-24.634.19-6.934 3.389-14.685 7.022-14.957 3.832-.287 4.958 7.994 11.408 14.078 11.25 10.599 30.586 6.862 34.228 6.159 31.459-6.078 44.015-41.756 44.764-43.987 2.388-7.125 8.095-24.166 0-42.229Zm-55.109 39.462c-1.282 1.199-7.756 7.268-13.891 5.949-6.651-1.428-8.548-10.603-9.263-14.068-.887-4.305-.367-7.412.663-13.523 1.368-8.134 2.13-12.258 5.954-15.149.381-.287 6.068-4.473 11.908-3.244 10.178 2.136 11.136 18.679 11.246 20.557.219 3.771.729 12.597-6.617 19.478Z"/>
</svg>
