<svg width="310" height="310" viewBox="0 0 310 310" fill="none" xmlns="http://www.w3.org/2000/svg">
<g clip-path="url(#clip0_3881_1082)">
<circle cx="155" cy="155" r="155" fill="#293730"/>
<path d="M155.282 192.119C134.989 192.119 118.523 175.653 118.523 155.36C118.523 135.067 134.989 118.602 155.282 118.602C175.575 118.602 192.041 135.067 192.041 155.36C192.041 175.564 175.575 192.119 155.282 192.119ZM155.282 123.853C137.926 123.853 123.864 137.915 123.864 155.271C123.864 172.627 137.926 186.69 155.282 186.69C172.638 186.69 186.701 172.627 186.701 155.271C186.701 137.915 172.638 123.853 155.282 123.853Z" fill="white" stroke="white" stroke-width="9"/>
<path d="M155.287 290.573C80.7009 290.573 20 229.872 20 155.287C20 80.7009 80.7009 20 155.287 20C229.872 20 290.573 80.7009 290.573 155.287C290.573 229.872 229.872 290.573 155.287 290.573ZM155.287 25.3403C83.6381 25.3403 25.3403 83.6381 25.3403 155.287C25.3403 226.935 83.6381 285.233 155.287 285.233C226.935 285.233 285.233 226.935 285.233 155.287C285.233 83.6381 226.935 25.3403 155.287 25.3403Z" fill="white" stroke="white" stroke-width="9"/>
<path d="M158.049 23.6406H152.709V120.032H158.049V23.6406Z" fill="white" stroke="white" stroke-width="9"/>
<path d="M158.049 190.625H152.709V287.017H158.049V190.625Z" fill="white" stroke="white" stroke-width="9"/>
<path d="M286.749 151.492H190.357V156.832H286.749V151.492Z" fill="white" stroke="white" stroke-width="9"/>
<path d="M120.302 149.418H23.9102V154.758H120.302V149.418Z" fill="white" stroke="white" stroke-width="9"/>
<path d="M95.1891 38.9236L90.5645 41.5938L138.76 125.069L143.385 122.399L95.1891 38.9236Z" fill="white" stroke="white" stroke-width="9"/>
<path d="M219.446 39.0053L171.24 122.48L175.865 125.151L224.07 41.6759L219.446 39.0053Z" fill="white" stroke="white" stroke-width="9"/>
<path d="M219.446 39.0053L171.24 122.48L175.865 125.151L224.07 41.6759L219.446 39.0053Z" fill="white" stroke="white" stroke-width="9"/>
<path d="M136.347 182.46L84.5117 266.707L89.0601 269.506L140.895 185.259L136.347 182.46Z" fill="white" stroke="white" stroke-width="9"/>
<path d="M44.7948 84.5803L41.8496 89.0352L122.26 142.195L125.205 137.74L44.7948 84.5803Z" fill="white" stroke="white" stroke-width="9"/>
<path d="M267.044 87.7245L184.648 137.742L187.419 142.307L269.815 92.2894L267.044 87.7245Z" fill="white" stroke="white" stroke-width="9"/>
<path d="M124.517 165.935L38.5273 213.113L41.096 217.795L127.085 170.617L124.517 165.935Z" fill="white" stroke="white" stroke-width="9"/>
<path d="M187.31 165.978L184.742 170.66L270.731 217.828L273.299 213.146L187.31 165.978Z" fill="white" stroke="white" stroke-width="9"/>
<path d="M174.711 183.167L170.312 186.195L225.935 266.986L230.334 263.958L174.711 183.167Z" fill="white" stroke="white" stroke-width="9"/>
</g>
<defs>
<clipPath id="clip0_3881_1082">
<rect width="310" height="310" fill="white"/>
</clipPath>
</defs>
</svg>
