<svg xmlns="http://www.w3.org/2000/svg" width="82" height="82" fill="none">
  <path stroke="#63891D" d="M40.9912 81.5c-10.8241 0-20.9844-4.2102-28.6415-11.8673C4.71048 61.9935.5 51.8157.5 40.9912c0-10.8241 4.2102-20.9844 11.8673-28.6415C20.0066 4.7104 30.1844.5 40.9912.5c10.8241 0 20.9844 4.2102 28.6415 11.8673S81.5 30.1847 81.5 41.0088c0 10.8241-4.2102 20.9844-11.8673 28.6415C61.9935 77.2895 51.8157 81.5 40.9912 81.5Zm0-80.943072C30.2013.556928 20.0333 4.76684 12.4 12.4 4.76684 20.0333.556928 30.2013.556928 40.9912c0 10.8077 4.209992 20.958 11.843072 28.5911 7.6333 7.6332 17.8013 11.8432 28.5912 11.8432 10.8077 0 20.958-4.21 28.5911-11.8432 7.6332-7.6332 11.8432-17.8012 11.8432-28.5911 0-10.8077-4.21-20.958-11.8432-28.5912C61.9492 4.76692 51.7989.556928 40.9912.556928Z"/>
  <path stroke="#63891D" d="M41.0057 47.7808c-3.7402 0-6.7752-3.035-6.7752-6.7751 0-3.7402 3.035-6.7752 6.7752-6.7752 3.7401 0 6.7751 3.035 6.7751 6.7752 0 3.7233-3.0357 6.7751-6.7751 6.7751Zm0-13.511c-3.7112 0-6.7183 3.0071-6.7183 6.7182 0 3.7112 3.0071 6.7183 6.7183 6.7183 3.7111 0 6.7182-3.0071 6.7182-6.7183 0-3.7111-3.0071-6.7182-6.7182-6.7182Z"/>
  <path stroke="#63891D" d="M41.0079 67.2659c-14.4856 0-26.2755-11.7899-26.2755-26.2755 0-14.4857 11.7899-26.2756 26.2755-26.2756 14.4856 0 26.2755 11.7899 26.2755 26.2756 0 14.4856-11.7899 26.2755-26.2755 26.2755Zm0-52.4941c-14.4566 0-26.2186 11.762-26.2186 26.2186 0 14.4565 11.762 26.2185 26.2186 26.2185 14.4566 0 26.2186-11.762 26.2186-26.2185 0-14.4566-11.762-26.2186-26.2186-26.2186Z"/>
  <path stroke="#63891D" d="M40.998 15.4355h.057v18.0776h-.057V15.4355ZM40.998 48.4844h.057v18.0775h-.057V48.4844ZM48.4492 40.7383h18.0776v.0569H48.4492v-.0569ZM15.5059 40.3301h18.0775v.0569H15.5059v-.0569ZM28.8803 18.6713l.0493-.0285 9.0387 15.6552-.0493.0284-9.0387-15.6551ZM44.8471 34.3131l9.0406-15.6551.0493.0285-9.0406 15.6551-.0493-.0285Z"/>
  <path stroke="#63891D" d="m44.8471 34.3131 9.0406-15.6551.0493.0285-9.0406 15.6551-.0493-.0285ZM27.6879 62.8791l9.735-15.8221.0485.0298-9.735 15.8222-.0485-.0299ZM19.2495 27.7356l.0314-.0475 15.0803 9.9698-.0314.0475-15.0803-9.9698ZM47.5052 37.6855l15.4527-9.3804.0295.0487-15.4527 9.3804-.0295-.0487ZM18.5773 52.6314l16.142-8.8562.0274.0499-16.142 8.8563-.0274-.05ZM47.5167 43.8353l.0274-.0499 16.142 8.8544-.0274.05-16.142-8.8545ZM44.6759 47.2357l.0469-.0323 10.4415 15.1662-.0468.0323-10.4416-15.1662ZM32.4779 80.1143l-.0565.0247c-.3566-.9795-.5308-2.0186-.5308-3.0873 0-5.0267 4.0926-9.1357 9.1357-9.1357 5.0267 0 9.1356 4.0925 9.1356 9.1357 0 1.0704-.1747 2.0987-.5331 3.0772l-.0519-.0217c.3479-.98.5281-2.0106.5281-3.0555 0-4.9964-4.0633-9.0788-9.0787-9.0788-5.0147 0-9.0787 4.0641-9.0787 9.0788 0 1.0628.1811 2.0844.5303 3.0626ZM4.94384 49.4901c-1.11914 0-2.21251-.2022-3.24816-.596l.02189-.0501c1.02454.3931 2.11054.5891 3.20865.5891 4.99642 0 9.07878-4.0633 9.07878-9.0787 0-4.9964-4.06341-9.0787-9.07878-9.0787-1.06025 0-2.07953.1802-3.05563.5278l-.02147-.0513c.98163-.3584 2.02333-.5334 3.09472-.5334 5.0267 0 9.13566 4.0925 9.13566 9.1356s-4.10895 9.1357-9.13566 9.1357ZM18.7653 58.5524c-.0164 4.545-3.294 8.3382-7.7028 9.0232l-.0062-.0619c4.3939-.6827 7.652-4.4506 7.652-8.9601 0-4.9964-4.0633-9.0787-9.0787-9.0787-2.70365 0-5.21061 1.1754-6.94028 3.2265l-.04603-.0345c1.73663-2.0644 4.26416-3.2489 6.98631-3.2489 5.0263 0 9.135 4.0918 9.1357 9.1344Z"/>
  <path stroke="#63891D" d="M31.9274 72.0263v.0028c.0157 2.7537-1.2296 5.3593-3.3435 7.075l-.0283-.0389c2.0922-1.7097 3.3325-4.2986 3.3325-7.0213 0-4.9964-4.0634-9.0787-9.0788-9.0787-4.3987 0-8.1394 3.1631-8.9266 7.4263l-.0675-.009c.7763-4.2962 4.5511-7.4919 8.9765-7.4919 5.0267 0 9.1357 4.0925 9.1357 9.1357ZM70.9568 67.5738c-4.4105-.7009-7.6853-4.4949-7.6853-9.0202 0-5.0267 4.0925-9.1356 9.1356-9.1356 2.6219 0 5.0794 1.1058 6.8074 3.0549l-.0438.0344c-1.7231-1.9277-4.169-3.0324-6.7636-3.0324-4.9964 0-9.0787 4.0634-9.0787 9.0787 0 4.4928 3.242 8.2599 7.6346 8.9582l-.0062.062Z"/>
  <path stroke="#63891D" d="M68.1215 70.2465c-.8417-4.173-4.5774-7.2598-8.8999-7.2598-4.9964 0-9.0787 4.0633-9.0787 9.0787 0 2.6821 1.1554 5.1681 3.1683 6.8955l-.0189.0242c-2.0362-1.7351-3.2064-4.2469-3.2064-6.9373 0-5.0267 4.0926-9.1357 9.1357-9.1357 4.3428 0 8.1132 3.1163 8.9517 7.3265l-.0518.0079ZM77.0693 49.8944c-5.0268 0-9.1357-4.0926-9.1357-9.1357 0-5.0267 4.0925-9.1357 9.1357-9.1357 1.0196 0 2.0107.16 2.9539.4888l-.0258.0628c-.9496-.327-1.944-.477-2.9458-.477-4.9964 0-9.0787 4.0634-9.0787 9.0787 0 4.9964 4.0634 9.0788 9.0787 9.0788 1.0603 0 2.0796-.1803 3.0557-.5279l.0201.0481c-.9653.3454-1.9911.5191-3.0581.5191ZM41.6357 14.0619c-5.0267 0-9.1357-4.09254-9.1357-9.13568 0-1.11818.2019-2.19803.5957-3.23066l.0508.02221c-.3904 1.02402-.572 2.0989-.572 3.20845 0 4.99642 4.0634 9.07878 9.0788 9.07878 5.0174 0 9.0435-4.06676 9.0435-9.07878 0-.96628-.1484-1.92134-.4465-2.83013l.057-.02241c.3004.90938.4464 1.86651.4464 2.85254 0 5.04433-4.0925 9.13568-9.118 9.13568Z"/>
  <path stroke="#63891D" d="M72.4071 32.2691c-5.0267 0-9.1356-4.0925-9.1356-9.1356 0-4.3236 3.0976-8.0782 7.2918-8.9477l.0077.0501c-4.1549.8576-7.2426 4.5902-7.2426 8.88 0 4.9964 4.0634 9.0787 9.0787 9.0787 2.6458 0 5.1138-1.1218 6.8402-3.1157l.0452.0356c-1.7295 2.0288-4.2081 3.1546-6.8854 3.1546Z"/>
  <path stroke="#63891D" d="M59.2216 19.019c-5.0267 0-9.1357-4.0925-9.1357-9.13568 0-2.67541 1.1401-5.16954 3.1559-6.90147l.0343.04367c-1.9942 1.72683-3.1156 4.19594-3.1156 6.8578 0 4.99638 4.0633 9.07878 9.0787 9.07878 4.3806 0 8.1203-3.1453 8.9242-7.3904l.0482.0065c-.8098 4.2622-4.599 7.4408-8.99 7.4408ZM19.3512 22.1432c0-4.2717-3.0541-8.0047-7.2076-8.8781l.008-.0527c1.9419.4005 3.7063 1.4415 5.0167 2.9678l.0019.0022c1.4349 1.6518 2.2203 3.7721 2.2203 5.9784 0 5.025-4.1083 9.1181-9.1356 9.1181-2.77228 0-5.3953-1.2628-7.11279-3.408l.0503-.0359c1.71184 2.1285 4.32142 3.3869 7.08009 3.3869 4.9964 0 9.0787-4.0633 9.0787-9.0787Z"/>
  <path stroke="#63891D" d="M23.6727 18.7556c-4.7123 0-8.6052-3.5185-9.0806-8.0806l.0593-.003c.4831 4.5394 4.3491 8.0267 9.0213 8.0267 4.9965 0 9.0788-4.0634 9.0788-9.07875 0-2.70464-1.2232-5.27433-3.2947-6.99625l.0345-.046c2.0856 1.72943 3.3171 4.32009 3.3171 7.04225 0 5.04375-4.0919 9.13565-9.1357 9.13565Z"/>
</svg>
