<svg xmlns="http://www.w3.org/2000/svg" width="766" height="224" fill="none"><g fill="#FFF282" clip-path="url(#a)"><path d="M5 43.028h99.518v24.29h-75.16V213.06H5V43.028ZM465.706 43.028v24.29h-31.665V213.06h-24.358V67.318h-31.664v-24.29h87.687ZM531.82 43.028l16.702 54.827c1.392 4.858 2.784 9.369 3.828 13.186a66.079 66.079 0 0 1 2.087 11.451 62.93 62.93 0 0 1 0 11.451c-.348 3.817-1.043 7.981-2.087 12.492l1.044.347c1.044-4.511 2.087-8.328 3.131-12.145 1.044-3.817 2.088-7.634 2.784-11.451 1.044-3.817 2.088-7.634 3.132-11.798s2.435-8.328 3.827-13.186l15.311-54.48h25.401l-51.847 169.685-25.749.347 16.354-48.928L506.07 43.028h25.75ZM627.162 43.028h89.079c6.959 0 13.223 1.388 19.486 3.47 6.264 2.43 11.483 5.9 15.659 10.063 4.523 4.164 8.003 9.37 10.439 15.269a50.942 50.942 0 0 1 3.827 19.432c0 6.94-1.392 13.533-3.827 19.432-2.436 5.899-6.264 11.104-10.439 15.268a47.529 47.529 0 0 1-15.659 10.41c-6.263 2.429-12.527 3.817-19.486 3.817H651.52v72.871h-24.358V43.028Zm89.427 72.871c6.959 0 12.875-2.429 17.746-6.94 4.872-4.511 7.308-10.41 7.308-17.35 0-7.287-2.436-12.84-7.308-17.35-4.871-4.511-10.787-6.94-17.746-6.94H651.52v48.58h65.069ZM235.353 43.028h47.671c6.959 0 13.222 1.388 19.486 3.47 6.263 2.43 11.483 5.9 16.006 10.063 4.524 4.164 8.003 9.37 10.439 15.269a50.924 50.924 0 0 1 3.828 19.432c0 6.94-1.392 13.533-3.828 19.432-2.436 5.899-6.263 11.104-10.439 15.268-4.523 4.511-9.743 7.981-16.006 10.41-6.264 2.429-12.527 3.817-19.486 3.817H259.71v72.871h-24.357V43.028Zm48.019 72.871c6.959 0 12.874-2.429 17.746-6.94 4.871-4.511 7.307-10.41 7.307-17.35 0-7.287-2.436-12.84-7.307-17.35-4.872-4.511-10.787-6.94-17.746-6.94H259.71v48.58h23.662ZM378.019 43.028h-24.358V213.06h24.358V43.028ZM490.064 43.028h-24.358V213.06h24.358V43.028ZM490.412 0H353.313v24.29h137.099V0ZM183.854 43.028V115.9h-32.013v-72.87h-24.358v97.16h56.371v5.552c0 22.555-6.612 49.969-14.615 49.969-14.266 0-14.962-26.026-14.962-26.026l-24.358.347c0 17.351 8.699 50.316 39.32 50.316 12.179 0 28.185-6.94 35.493-40.599 3.479-16.657 3.479-32.966 3.479-33.66V43.028h-24.357Z"/></g><g fill="#FF794F" clip-path="url(#b)"><path d="M0 47.028h99.518v24.29h-75.16V217.06H0V47.028ZM460.706 47.028v24.29h-31.665V217.06h-24.358V71.318h-31.664v-24.29h87.687ZM526.82 47.028l16.702 54.827c1.392 4.858 2.784 9.369 3.828 13.186a66.079 66.079 0 0 1 2.087 11.451 62.93 62.93 0 0 1 0 11.451c-.348 3.817-1.043 7.981-2.087 12.492l1.044.347c1.044-4.511 2.087-8.328 3.131-12.145 1.044-3.817 2.088-7.634 2.784-11.451 1.044-3.817 2.088-7.634 3.132-11.798s2.435-8.328 3.827-13.186l15.311-54.48h25.401l-51.847 169.685-25.749.347 16.354-48.928L501.07 47.028h25.75ZM622.162 47.028h89.079c6.959 0 13.223 1.388 19.486 3.47 6.264 2.43 11.483 5.9 15.659 10.063 4.523 4.164 8.003 9.37 10.439 15.269a50.942 50.942 0 0 1 3.827 19.432c0 6.94-1.392 13.533-3.827 19.432-2.436 5.899-6.264 11.104-10.439 15.268a47.529 47.529 0 0 1-15.659 10.41c-6.263 2.429-12.527 3.817-19.486 3.817H646.52v72.871h-24.358V47.028Zm89.427 72.871c6.959 0 12.875-2.429 17.746-6.94 4.872-4.511 7.308-10.41 7.308-17.35 0-7.287-2.436-12.84-7.308-17.35-4.871-4.511-10.787-6.94-17.746-6.94H646.52v48.58h65.069ZM230.353 47.028h47.671c6.959 0 13.222 1.388 19.486 3.47 6.263 2.43 11.483 5.9 16.006 10.063 4.524 4.164 8.003 9.37 10.439 15.269a50.924 50.924 0 0 1 3.828 19.432c0 6.94-1.392 13.533-3.828 19.432-2.436 5.899-6.263 11.104-10.439 15.268-4.523 4.511-9.743 7.981-16.006 10.41-6.264 2.429-12.527 3.817-19.486 3.817H254.71v72.871h-24.357V47.028Zm48.019 72.871c6.959 0 12.874-2.429 17.746-6.94 4.871-4.511 7.307-10.41 7.307-17.35 0-7.287-2.436-12.84-7.307-17.35-4.872-4.511-10.787-6.94-17.746-6.94H254.71v48.58h23.662ZM373.019 47.028h-24.358V217.06h24.358V47.028ZM485.064 47.028h-24.358V217.06h24.358V47.028ZM485.412 4H348.313v24.29h137.099V4ZM178.854 47.028V119.9h-32.013v-72.87h-24.358v97.16h56.371v5.552c0 22.555-6.612 49.969-14.615 49.969-14.266 0-14.962-26.026-14.962-26.026l-24.358.347c0 17.351 8.699 50.316 39.32 50.316 12.179 0 28.185-6.94 35.493-40.599 3.479-16.657 3.479-32.966 3.479-33.66V47.028h-24.357Z"/></g><defs><clipPath id="a"><path fill="#fff" d="M5 0h761v220H5z"/></clipPath><clipPath id="b"><path fill="#fff" d="M0 4h761v220H0z"/></clipPath></defs></svg>