<svg width="1354" height="389" viewBox="0 0 1354 389" fill="none" xmlns="http://www.w3.org/2000/svg">
<path d="M16 180.999C2.83335 140.832 -5.8 55.8986 65 37.4986C153.5 14.4986 -86.9999 303.499 39.5001 311.999C166 320.499 23 51.9989 236 37.4986C449 22.9984 25 400.998 236 343.998C447 286.998 520.5 392.498 677 343.998C833.5 295.498 1131 460.498 1175.5 343.998C1220 227.498 962.5 149.998 1038.5 77.9984C1114.5 5.99838 1201 -21.0016 1228.5 22.9984C1256 66.9984 1047 115.499 1144 161.999C1221.6 199.199 1315.67 167.832 1353 147.499" stroke="#F8F3F3" stroke-width="3"/>
</svg>
