<svg width="366" height="370" viewBox="0 0 366 370" fill="none" xmlns="http://www.w3.org/2000/svg">
<path d="M0.745247 245.272L0.89435 123.234L88.2573 110.985L88.4064 16.5804L201.113 0.746738L200.964 95.0019L278.041 84.2469L288.178 82.7532L288.029 204.792L200.815 217.041L200.666 311.445L87.81 327.279L87.81 285.753L87.9591 232.874L0.745247 245.272Z" stroke="#379908" stroke-miterlimit="10" stroke-linejoin="round"/>
<path d="M0.745136 245.272L87.959 232.874L87.8099 285.753L77.6722 287.247L0.745136 245.272Z" stroke="#379908" stroke-miterlimit="10" stroke-linejoin="round"/>
<path d="M200.964 95.0019L201.113 0.74681L278.189 42.721L278.04 84.247L200.964 95.0019Z" stroke="#379908" stroke-miterlimit="10" stroke-linejoin="round"/>
<path d="M200.666 311.445L200.815 217.041L277.742 259.015L277.593 353.419L200.666 311.445Z" stroke="#379908" stroke-miterlimit="10" stroke-linejoin="round"/>
<path d="M87.81 327.279L200.666 311.445L277.593 353.419L164.737 369.253L87.81 327.279Z" stroke="#379908" stroke-miterlimit="10" stroke-linejoin="round"/>
<path d="M288.029 204.792L288.178 82.7532L365.254 124.727L364.956 246.766L288.029 204.792Z" stroke="#379908" stroke-miterlimit="10" stroke-linejoin="round"/>
<path d="M200.815 217.04L288.029 204.792L364.956 246.766L277.742 259.015L200.815 217.04Z" stroke="#379908" stroke-miterlimit="10" stroke-linejoin="round"/>
</svg>
