<svg width="1058" height="301" viewBox="0 0 1058 301" fill="none" xmlns="http://www.w3.org/2000/svg">
<circle cx="149.916" cy="149.87" r="148.37" stroke="#DBFFAE" stroke-width="3"/>
<rect x="400.78" y="2.75928" width="296.741" height="296.741" stroke="#DBFFAE" stroke-width="3"/>
<mask id="path-3-inside-1_1519_298" fill="white">
<path fill-rule="evenodd" clip-rule="evenodd" d="M984.841 74.3337V0.998054L832.593 0.998047V74.3337H759.48V227.045H832.593V300.381H984.841V227.045H1057.95V74.3337H984.841Z"/>
</mask>
<path d="M984.841 0.998054H987.841V-2.00195H984.841V0.998054ZM984.841 74.3337H981.841V77.3337H984.841V74.3337ZM832.593 0.998047V-2.00195L829.593 -2.00195V0.998047H832.593ZM832.593 74.3337V77.3337H835.593V74.3337H832.593ZM759.48 74.3337V71.3337H756.48V74.3337H759.48ZM759.48 227.045H756.48V230.045H759.48V227.045ZM832.593 227.045H835.593V224.045H832.593V227.045ZM832.593 300.381H829.593V303.381H832.593V300.381ZM984.841 300.381V303.381H987.841V300.381H984.841ZM984.841 227.045V224.045H981.841V227.045H984.841ZM1057.95 227.045V230.045H1060.95V227.045H1057.95ZM1057.95 74.3337H1060.95V71.3337H1057.95V74.3337ZM981.841 0.998054V74.3337H987.841V0.998054H981.841ZM832.593 3.99805L984.841 3.99805V-2.00195L832.593 -2.00195V3.99805ZM835.593 74.3337V0.998047H829.593V74.3337H835.593ZM759.48 77.3337H832.593V71.3337H759.48V77.3337ZM762.48 227.045V74.3337H756.48V227.045H762.48ZM832.593 224.045H759.48V230.045H832.593V224.045ZM835.593 300.381V227.045H829.593V300.381H835.593ZM984.841 297.381H832.593V303.381H984.841V297.381ZM981.841 227.045V300.381H987.841V227.045H981.841ZM1057.95 224.045H984.841V230.045H1057.95V224.045ZM1054.95 74.3337V227.045H1060.95V74.3337H1054.95ZM984.841 77.3337H1057.95V71.3337H984.841V77.3337Z" fill="#DBFFAE" mask="url(#path-3-inside-1_1519_298)"/>
</svg>
