<svg xmlns="http://www.w3.org/2000/svg" width="1161" height="104" fill="none"><path fill="#E07031" fill-rule="evenodd" d="M221 70v34h-36V70h-34V34h34V0h36v34h34v36h-34ZM70 104V70h34V34H70V0H34v34H0v36h34v34h36Zm302 0V70h34V34h-34V0h-36v34h-34v36h34v34h36Zm151-34v34h-36V70h-34V34h34V0h36v34h34v36h-34Zm151 34V70h34V34h-34V0h-36v34h-34v36h34v34h36Zm151-34v34h-36V70h-34V34h34V0h36v34h34v36h-34Zm151 34V70h34V34h-34V0h-36v34h-34v36h34v34h36Zm151-34v34h-36V70h-34V34h34V0h36v34h34v36h-34Z" clip-rule="evenodd"/></svg>