<svg width="377" height="412" viewBox="0 0 377 412" fill="none" xmlns="http://www.w3.org/2000/svg">
<path d="M326.416 94.6055L287.854 111.848L282.41 88.48L326.416 94.6055Z" stroke="#379908" stroke-miterlimit="10" stroke-linejoin="round"/>
<path d="M154.021 410.866L83.7024 401.11L42.8721 220.52L85.0634 226.419L81.6609 211.672L109.562 215.529L154.021 410.866Z" stroke="#379908" stroke-miterlimit="10" stroke-linejoin="round"/>
<path d="M85.0633 226.419L42.8719 220.52L14.9712 216.663L1.13428 155.861L71.2263 165.617L81.6607 211.672L85.0633 226.419Z" stroke="#379908" stroke-miterlimit="10" stroke-linejoin="round"/>
<path d="M95.7245 154.727L71.2263 165.617L1.13428 155.861L25.6325 144.971L95.7245 154.727Z" stroke="#379908" stroke-miterlimit="10" stroke-linejoin="round"/>
<path d="M375.866 312.403L154.021 410.866L109.562 215.529L81.661 211.672L71.2266 165.617L95.7248 154.727L81.661 92.337L264.944 11.1167L282.41 88.4801L287.854 111.848L326.416 94.6057L375.866 312.403Z" stroke="#379908" stroke-miterlimit="10" stroke-linejoin="round"/>
<path d="M109.562 215.529L85.0637 226.419L81.6611 211.672L109.562 215.529Z" stroke="#379908" stroke-miterlimit="10" stroke-linejoin="round"/>
<path d="M95.7247 154.727L25.6326 144.971L11.5688 82.5815L81.6609 92.337L95.7247 154.727Z" stroke="#379908" stroke-miterlimit="10" stroke-linejoin="round"/>
<path d="M264.944 11.1167L81.6609 92.3369L11.5688 82.5814L194.625 1.13428L264.944 11.1167Z" stroke="#379908" stroke-miterlimit="10" stroke-linejoin="round"/>
</svg>
